<svg xmlns="http://www.w3.org/2000/svg" viewBox="0 0 32 32">
  <rect width="32" height="32" fill="white" opacity="0.5" rx="5"/>
  <circle cx="26.5" cy="22.5" r="1.8" fill="#4a4a4b"/>
  <circle cx="18" cy="16" r="1.8" fill="#4a4a4b"/>
  <path d="M6.4 13.6c0-1.33-1.07-2.4-2.4-2.4V7.6c3.31 0 6 2.69 6 6v10.8H6.4V13.6Zm11.6-6c-3.31 0-6 2.69-6 6v4.8c0 3.31 2.69 6 6 6s6-2.69 6-6v-4.8c0-3.31-2.69-6-6-6Zm2.4 10.8c0 1.33-1.07 2.4-2.4 2.4s-2.4-1.07-2.4-2.4v-4.8c0-1.33 1.07-2.4 2.4-2.4s2.4 1.07 2.4 2.4v4.8Z" fill="#4a4a4b"/>
</svg>