<svg xmlns="http://www.w3.org/2000/svg" viewBox="0 0 32 32"><defs><style>.cls-1,.cls-4{fill:#fff;}.cls-1{opacity:0.5;}.cls-2{fill:#4a4a4b;}.cls-3{fill:#f24b59;}</style></defs><rect class="cls-1" width="32" height="32" rx="5.02"/><circle class="cls-2" cx="27" cy="23" r="1.82"/><circle class="cls-2" cx="5" cy="9.5" r="1.82"/><path class="cls-2" d="M8,8a3.9,3.9,0,0,1,0,3h5v3H7a1.66,1.66,0,0,0-1.4,1.5A1.66,1.66,0,0,0,7,17h5.5c-.38,1.07-.73,1.06-1.71,2A12.18,12.18,0,0,1,6,21.88a1.38,1.38,0,0,0-.81,1.89A1.42,1.42,0,0,0,7,24.51c3.6-1.38,6.23-3.62,7.5-6.51,1.26,2.89,3.89,5.13,7.49,6.51a1.42,1.42,0,0,0,1.76-.74,1.37,1.37,0,0,0-.81-1.89A12.26,12.26,0,0,1,18.18,19c-1-1-1.3-.95-1.68-2H22a1.66,1.66,0,0,0,1.4-1.5A1.66,1.66,0,0,0,22,14H16V11h7a1.66,1.66,0,0,0,1.4-1.5A1.66,1.66,0,0,0,23,8Z"/><path class="cls-3" d="M30.88,7.34,28,1.64a1.15,1.15,0,0,0-1.54-.52,1.09,1.09,0,0,0-.52.52l-2.85,5.7a1.15,1.15,0,0,0,.52,1.54,1.13,1.13,0,0,0,.51.12h5.7A1.15,1.15,0,0,0,31,7.85,1.13,1.13,0,0,0,30.88,7.34Z"/><path class="cls-4" d="M26.33,3.18a.68.68,0,0,1,1.34,0v2.3a.68.68,0,0,1-1.34,0ZM27,8a.67.67,0,0,1-.67-.67.67.67,0,0,1,1.34,0A.67.67,0,0,1,27,8Z"/></svg>
