<svg xmlns="http://www.w3.org/2000/svg" id="Layer_1" data-name="Layer 1" viewBox="0 0 32 32">
  <defs>
    <linearGradient id="linear-gradient" x1="-118.1" x2="-118.1" y1="-390.09" y2="-390.24" gradientTransform="matrix(130 0 0 -20 15366 -7775)" gradientUnits="userSpaceOnUse">
      <stop offset=".2" stop-color="#0f0"/>
      <stop offset="1" stop-color="green"/>
    </linearGradient>
    <style>
      .cls-1{fill:#4a4a4b}
    </style>
  </defs>
  <circle cx="26.5" cy="22.5" r="1.8" class="cls-1"/>
  <circle cx="18" cy="16" r="1.8" class="cls-1"/>
  <path d="M6.4 13.6A2.39 2.39 0 004 11.2V7.6a6 6 0 016 6v10.8H6.4zM18 7.6a6 6 0 00-6 6v4.8a6 6 0 0012 0v-4.8a6 6 0 00-6-6zm2.4 10.8a2.4 2.4 0 01-4.8 0v-4.8a2.4 2.4 0 114.8 0z" class="cls-1"/>
  <path fill-opacity=".7" d="M4.75 26h22.5a2.25 2.25 0 012.25 2.25 2.25 2.25 0 01-2.25 2.25H4.75a2.25 2.25 0 01-2.25-2.25A2.25 2.25 0 014.75 26z"/>
  <path fill="url(#linear-gradient)" d="M4.75 26.75h18v3h-18a1.5 1.5 0 010-3z"/>
</svg>
