<svg xmlns="http://www.w3.org/2000/svg" viewBox="0 0 32 32">
  <defs>
    <linearGradient id="linear-gradient" x1="-108.2" x2="-108.2" y1="-138.09" y2="-138.24" gradientTransform="matrix(10 0 0 -20 1086 -2735)" gradientUnits="userSpaceOnUse">
      <stop offset=".2" stop-color="#0f0"/>
      <stop offset="1" stop-color="green"/>
    </linearGradient>
  </defs>
  <rect width="32" height="32" rx="5" fill="white" opacity="0.5"/>
  <g fill="#4a4a4b">
    <circle cx="26.5" cy="22.5" r="1.8"/>
    <circle cx="18" cy="16" r="1.8"/>
    <path d="M6.4 13.6A2.39 2.39 0 004 11.2V7.6a6 6 0 016 6v10.8H6.4zM18 7.6a6 6 0 00-6 6v4.8a6 6 0 0012 0v-4.8a6 6 0 00-6-6zm2.4 10.8a2.4 2.4 0 01-4.8 0v-4.8a2.4 2.4 0 114.8 0z"/>
  </g>
  <path fill-opacity=".7" d="M4.75 26h22.5a2.25 2.25 0 012.25 2.25 2.25 2.25 0 01-2.25 2.25H4.75a2.25 2.25 0 01-2.25-2.25A2.25 2.25 0 014.75 26z"/>
  <path fill="url(#linear-gradient)" d="M4.75 26.75v3a1.5 1.5 0 010-3z"/>
</svg>
