<svg xmlns="http://www.w3.org/2000/svg" id="Layer_1" data-name="Layer 1" viewBox="0 0 32 32">
  <defs>
    <style>
      .cls-1{fill:#4a4a4b}
    </style>
  </defs>
  <circle cx="26.5" cy="22.5" r="1.8" class="cls-1"/>
  <circle cx="18" cy="16" r="1.8" class="cls-1"/>
  <path d="M6.4 13.6A2.39 2.39 0 004 11.2V7.6a6 6 0 016 6v10.8H6.4zM18 7.6a6 6 0 00-6 6v4.8a6 6 0 0012 0v-4.8a6 6 0 00-6-6zm2.4 10.8a2.4 2.4 0 01-4.8 0v-4.8a2.4 2.4 0 114.8 0z" class="cls-1"/>
  <path fill="#f24b59" d="M30.88 7.34L28 1.64a1.15 1.15 0 00-1.54-.52 1.09 1.09 0 00-.52.52l-2.85 5.7a1.15 1.15 0 00.52 1.54 1.13 1.13 0 00.51.12h5.7A1.15 1.15 0 0031 7.85a1.13 1.13 0 00-.12-.51z"/>
  <path fill="#fff" d="M26.33 3.18a.68.68 0 011.34 0v2.3a.68.68 0 01-1.34 0zM27 8a.67.67 0 01-.67-.67.67.67 0 011.34 0A.67.67 0 0127 8z"/>
</svg>
