<svg xmlns="http://www.w3.org/2000/svg" viewBox="0 0 32 32">
  <rect width="32" height="32" fill="white" opacity="0.5" rx="5"/>
  <circle cx="27" cy="23" r="1.82" fill="#4a4a4b"/>
  <circle cx="5" cy="9.5" r="1.82" fill="#4a4a4b"/>
  <path d="M8 8c.18.37.3 1.06.3 1.5S8.18 10.63 8 11h5v3H7c-.67 0-1.4.83-1.4 1.5S6.33 17 7 17h5.5c-.38 1.07-.73 1.06-1.71 2.02-1.25 1.24-2.84 2.2-4.75 2.86-.78.27-1.17 1.14-.82 1.89.31.66 1.08 1 1.77.74 3.59-1.38 6.23-3.61 7.49-6.51 1.27 2.9 3.9 5.14 7.49 6.51.68.26 1.45-.08 1.77-.74.35-.74-.03-1.62-.82-1.89-1.91-.66-3.5-1.61-4.75-2.86-.97-.97-1.3-.95-1.68-2.02h5.5c.67 0 1.4-.83 1.4-1.5s-.73-1.5-1.4-1.5h-6v-3h7c.67 0 1.4-.83 1.4-1.5S23.66 8 22.99 8H8Z" fill="#4a4a4b"/>
  <path d="m30.88 7.34-2.85-5.7c-.28-.57-.98-.8-1.54-.51-.22.11-.4.29-.51.51l-2.85 5.7A1.149 1.149 0 0 0 24.16 9h5.7c.64 0 1.15-.51 1.15-1.15 0-.18-.04-.35-.12-.51Z" fill="#f24b59"/>
  <path d="M26.33 3.18c0-.32.3-.58.67-.58s.67.26.67.58v2.3c0 .32-.3.58-.67.58s-.67-.26-.67-.58v-2.3ZM27 8a.67.67 0 1 1 0-1.34A.67.67 0 0 1 27 8Z" fill="white"/>
</svg>