<svg xmlns="http://www.w3.org/2000/svg" xmlns:xlink="http://www.w3.org/1999/xlink" viewBox="0 0 128 128">
  <defs>
    <clipPath id="clip-path">
      <rect width="96" height="96" x="16" y="16" fill="none" rx="21.67"/>
    </clipPath>
  </defs>
  <g>
    <rect width="96" height="96" x="16" y="16" fill="#1d1a19" rx="21.67"
      style="filter: drop-shadow(0px 0px 6px #fffc)"/>
    <g clip-path="url(#clip-path)">
      <circle cx="90" cy="75.57" r="4.43" fill="#2698fb"/>
      <circle cx="71" cy="59" r="4.43" fill="#ffd500"/>
      <path fill="white" d="M42 53a6 6 0 00-6-6v-9a15 15 0 0115 15v27h-9zM71 38a15 15 0 00-15 15v12a15 15 0 0030 0V53a15 15 0 00-15-15zm6 27a6 6 0 01-12 0V53a6 6 0 0112 0zM36 86h3.48c2.43 0 4 .91 4 3.3a3.24 3.24 0 01-3.2 3.4l3.42 5.87h-.93l-3.36-5.82H36.8v5.82H36zm3.25 6.07c2.2 0 3.4-.9 3.4-2.77s-1.2-2.61-3.4-2.61H36.8v5.38zM46 86h6.67v.71H46.8v4.82h4.93v.71H46.8v5.63h6.06v.7H46zM58.6 86h.78l4.35 12.57h-.85l-1.45-4.35h-4.87l-1.47 4.35h-.82zm-1.8 7.52h4.4l-.8-2.39c-.5-1.49-.93-2.8-1.37-4.35H59c-.42 1.55-.85 2.86-1.35 4.35zM65 86h2.81c3.79 0 5.55 2.46 5.55 6.24s-1.76 6.33-5.54 6.33H65zm2.73 11.87c3.35 0 4.8-2.33 4.8-5.63s-1.45-5.55-4.8-5.55H65.8v11.18zM76 86h6.67v.71H76.8v4.82h4.93v.71H76.8v5.63h6.06v.7H76zM85 86h3.48c2.43 0 4 .91 4 3.3a3.24 3.24 0 01-3.2 3.4l3.42 5.87h-.93l-3.36-5.82H85.8v5.82H85zm3.25 6.07c2.2 0 3.4-.9 3.4-2.77s-1.2-2.61-3.4-2.61H85.8v5.38z"/>
      <path fill="#f24b59" d="M80 14.12V38l7-7 7 7V14.12H80z"/>
      <path fill="#1a1d19" d="M83 27.78a1.72 1.72 0 01-.71-.62l.86-.63a1 1 0 00.38.33A1 1 0 0084 27a.85.85 0 00.69-.28 1.22 1.22 0 00.24-.81v-4.4H86v4.4a2.54 2.54 0 01-.24 1.09 1.62 1.62 0 01-.7.72 2.47 2.47 0 01-2.1 0zM89.11 21.48h.78L92.31 28h-1.14l-1.67-4.86L87.83 28h-1.14zm-1.28 4.25h3.4v1h-3.4z"/>
    </g>
  </g>
</svg>
