<svg xmlns="http://www.w3.org/2000/svg" xmlns:xlink="http://www.w3.org/1999/xlink" viewBox="0 0 32 32"><defs><style>.cls-1{fill:#1d1a19;}.cls-2{fill:#2698fb;}.cls-3{fill:#ffd500;}.cls-4{fill:#fff;}.cls-5{fill-opacity:0.7;}.cls-6{fill:url(#linear-gradient);}</style><linearGradient id="linear-gradient" x1="-16.85" y1="-264.09" x2="-16.85" y2="-264.24" gradientTransform="matrix(70, 0, 0, -20, 1188, -5255)" gradientUnits="userSpaceOnUse"><stop offset="0.2" stop-color="lime"/><stop offset="1" stop-color="green"/></linearGradient></defs><rect class="cls-1" width="32" height="32" rx="5.02"/><circle class="cls-2" cx="27" cy="23" r="1.82"/><circle class="cls-3" cx="5" cy="9.5" r="1.82"/><path class="cls-4" d="M8,8a3.9,3.9,0,0,1,0,3h5v3H7a1.66,1.66,0,0,0-1.4,1.5A1.66,1.66,0,0,0,7,17h5.5c-.38,1.07-.73,1.06-1.71,2A12.18,12.18,0,0,1,6,21.88a1.38,1.38,0,0,0-.81,1.89A1.42,1.42,0,0,0,7,24.51c3.6-1.38,6.23-3.62,7.5-6.51,1.26,2.89,3.89,5.13,7.49,6.51a1.42,1.42,0,0,0,1.76-.74,1.37,1.37,0,0,0-.81-1.89A12.26,12.26,0,0,1,18.18,19c-1-1-1.3-.95-1.68-2H22a1.66,1.66,0,0,0,1.4-1.5A1.66,1.66,0,0,0,22,14H16V11h7a1.66,1.66,0,0,0,1.4-1.5A1.66,1.66,0,0,0,23,8Z"/><path class="cls-5" d="M4.75,26h22.5a2.25,2.25,0,0,1,2.25,2.25h0a2.25,2.25,0,0,1-2.25,2.25H4.75A2.25,2.25,0,0,1,2.5,28.25h0A2.25,2.25,0,0,1,4.75,26Z"/><path class="cls-6" d="M4.75,26.75h9v3h-9a1.5,1.5,0,0,1,0-3Z"/></svg>
