<svg xmlns="http://www.w3.org/2000/svg" viewBox="0 0 32 32">
  <defs>
    <linearGradient id="linear-gradient" x1="-16.4" x2="-16.4" y1="-138.09" y2="-138.24" gradientTransform="translate(168 -2735) scale(10 -20)" gradientUnits="userSpaceOnUse">
      <stop offset=".2" stop-color="lime"/>
      <stop offset="1" stop-color="green"/>
    </linearGradient>
  </defs>
  <rect width="32" height="32" fill="#1d1a19" rx="5"/>
  <circle cx="26.5" cy="22.5" r="1.8" fill="#2698fb"/>
  <circle cx="18" cy="16" r="1.8" fill="#ffd500"/>
  <path d="M6.4 13.6c0-1.33-1.07-2.4-2.4-2.4V7.6c3.31 0 6 2.69 6 6v10.8H6.4V13.6Zm11.6-6c-3.31 0-6 2.69-6 6v4.8c0 3.31 2.69 6 6 6s6-2.69 6-6v-4.8c0-3.31-2.69-6-6-6Zm2.4 10.8c0 1.33-1.07 2.4-2.4 2.4s-2.4-1.07-2.4-2.4v-4.8c0-1.33 1.07-2.4 2.4-2.4s2.4 1.07 2.4 2.4v4.8Z" fill="white"/>
  <path d="M4.75 26h22.5c1.24 0 2.25 1.01 2.25 2.25s-1.01 2.25-2.25 2.25H4.75c-1.24 0-2.25-1.01-2.25-2.25S3.51 26 4.75 26Z" fill-opacity=".7"/>
  <path d="M4.8 26.75h22.5c.75 0 1.5.75 1.5 1.5s-.75 1.5-1.5 1.5H4.8c-.75 0-1.5-.75-1.5-1.5s.75-1.5 1.5-1.5Z" fill="url(#linear-gradient)"/>
</svg>