<svg xmlns="http://www.w3.org/2000/svg" viewBox="0 0 200 200"
  width="200px" height="200px">
  <path fill="#5C73B8" stroke="#B7E7FF" stroke-width="5" stroke-miterlimit="10" d="M178.5 197.5h-157c-10.5 0-19-8.5-19-19v-157c0-10.5 8.5-19 19-19h157c10.5 0 19 8.5 19 19v157c0 10.5-8.5 19-19 19z"/>
  <g fill="#B7E7FF">
    <path d="M75.4 164.9c-3.8 0-5.8-1.9-5.8-5.2 0-2 .8-5.2 5.8-5.2h41.4v-22.8H85.1c-5.1 0-5.8-3.3-5.8-5.2 0-3.4 2.1-5.2 5.8-5.2h31.7v-18H90.5c-2.7 0-5.2-1.1-7.4-3.3-2.2-2.2-3.3-4.7-3.3-7.4V41c0-2.7 1.1-5.2 3.3-7.4s4.7-3.3 7.4-3.3h64.2c2.7 0 5.2 1.1 7.4 3.3 2.2 2.2 3.3 4.7 3.3 7.4v51.5c0 2.7-1.1 5.2-3.3 7.4-2.2 2.2-4.7 3.3-7.4 3.3h-27.5v18h32.9c3.8 0 5.8 1.9 5.8 5.2s-2.1 5.2-5.8 5.2h-32.9v22.8h37.1c3.8 0 5.8 1.9 5.8 5.2 0 3.4-2.1 5.2-5.8 5.2H75.4zm74.5-72.2c3.5 0 5.1-1.6 5.1-5.1v-16h-27.7v21h22.6zm-59.6-5.1c0 3.5 1.6 5.1 5.1 5.1h21.4v-21H90.3v15.9zm64.6-26.4V45.8c0-3.5-1.6-5.1-5.1-5.1h-22.6v20.4h27.7zm-38.1 0V40.8H95.4c-3.5 0-5.1 1.6-5.1 5.1v15.3h26.5zm-81.4 94.7c-3.7 0-6.1-1.8-7-5.1v-.2c0-3.7 1.7-6.1 5-7 3.2-.8 7.4-1.8 12.6-2.9V95.9H36c-5.1 0-5.8-3.3-5.8-5.2 0-3.4 2.1-5.2 5.8-5.2h9.9v-41H34.8c-5.1 0-5.8-3.3-5.8-5.2 0-3.4 2.1-5.2 5.8-5.2h35.1c3.8 0 5.8 1.9 5.8 5.2s-2.1 5.2-5.8 5.2H56.4v41h11.7c3.8 0 5.8 1.9 5.8 5.2s-2.1 5.2-5.8 5.2H56.4v42.5c5.5-1.5 10.5-3 15-4.5h.1c.9-.2 1.7-.3 2.4-.3 2.8 0 4.5 1.5 4.9 4.2.3 2-.2 4.8-4.9 6.5-14.5 5.6-27 9.5-37.1 11.5-.5.1-1 .1-1.4.1z"/>
    <path d="M69.9 34.9c3.2 0 4.8 1.4 4.8 4.2 0 2.8-1.6 4.2-4.8 4.2H55.4v43h12.7c3.2 0 4.8 1.4 4.8 4.2 0 2.8-1.6 4.2-4.8 4.2H55.4v44.8c6.1-1.6 11.5-3.2 16.3-4.8 3.6-.8 5.6.2 6.1 3 .4 2.4-1 4.2-4.2 5.4-14.5 5.7-26.8 9.5-36.9 11.5-4 .4-6.5-1-7.3-4.2 0-3.2 1.4-5.2 4.2-6.1 3.2-.8 7.7-1.8 13.3-3V94.9H36c-3.2 0-4.8-1.4-4.8-4.2 0-2.8 1.6-4.2 4.8-4.2h10.9v-43H34.8c-3.2 0-4.8-1.4-4.8-4.2 0-2.8 1.6-4.2 4.8-4.2h35.1zm84.8-3.6c2.4 0 4.6 1 6.7 3 2 2 3 4.2 3 6.7v51.5c0 2.4-1 4.6-3 6.7-2 2-4.2 3-6.7 3h-28.5v20h33.9c3.2 0 4.8 1.4 4.8 4.2 0 2.8-1.6 4.2-4.8 4.2h-33.9v24.8h38.1c3.2 0 4.8 1.4 4.8 4.2 0 2.8-1.6 4.2-4.8 4.2h-89c-3.2 0-4.8-1.4-4.8-4.2 0-2.8 1.6-4.2 4.8-4.2h42.4v-24.8H85.1c-3.2 0-4.8-1.4-4.8-4.2 0-2.8 1.6-4.2 4.8-4.2h32.7v-20H90.5c-2.4 0-4.6-1-6.7-3-2-2-3-4.2-3-6.7V41c0-2.4 1-4.6 3-6.7 2-2 4.2-3 6.7-3h64.2zM89.3 45.8v16.3h28.5V39.8H95.4c-4.1 0-6.1 2-6.1 6zm0 41.8c0 4 2 6.1 6.1 6.1h22.4v-23H89.3v16.9zm36.9-25.4h29.7V45.8c0-4-2-6.1-6.1-6.1h-23.6v22.5zm0 31.5h23.6c4 0 6.1-2 6.1-6.1v-17h-29.7v23.1z"/>
  </g>
  <defs>
    <linearGradient id="grad" x2="0%" y2="100%">
      <stop stop-color="lime" offset="0.2" />
      <stop stop-color="green" offset="1" />
    </linearGradient>
  </defs>
  <g transform="translate(0 90)">
    <rect x="10" width="180" height="30" rx="15" ry="15" fill-opacity="0.7"/>
    <path fill="url(#grad) lime" d="M25 5h90v20h-90c-5 0-10-5-10-10c0-5 5-10 10-10z" />
  </g>
</svg>
